<svg width="58" height="58" viewBox="0 0 58 58" fill="none" xmlns="http://www.w3.org/2000/svg">
<path d="M39.5725 7.85379C42.3743 7.86216 45.0589 8.97885 47.04 10.96C49.0211 12.9411 50.1378 15.6257 50.1462 18.4275V39.5725C50.1378 42.3743 49.0211 45.0589 47.04 47.04C45.0589 49.0211 42.3743 50.1378 39.5725 50.1462H18.4275C15.6257 50.1378 12.9411 49.0211 10.96 47.04C8.97885 45.0589 7.86216 42.3743 7.85379 39.5725V18.4275C7.86216 15.6257 8.97885 12.9411 10.96 10.96C12.9411 8.97885 15.6257 7.86216 18.4275 7.85379H39.5725ZM39.5725 3.625H18.4275C10.2859 3.625 3.625 10.2859 3.625 18.4275V39.5725C3.625 47.7141 10.2859 54.375 18.4275 54.375H39.5725C47.7141 54.375 54.375 47.7141 54.375 39.5725V18.4275C54.375 10.2859 47.7141 3.625 39.5725 3.625Z" fill="#393903"/>
<path d="M42.7444 18.4275C42.117 18.4275 41.5038 18.2415 40.9822 17.8929C40.4606 17.5444 40.054 17.049 39.814 16.4694C39.5739 15.8899 39.5111 15.2521 39.6335 14.6368C39.7558 14.0215 40.0579 13.4564 40.5015 13.0128C40.9451 12.5692 41.5103 12.2671 42.1256 12.1447C42.7409 12.0223 43.3786 12.0851 43.9582 12.3252C44.5378 12.5653 45.0332 12.9718 45.3817 13.4934C45.7302 14.015 45.9163 14.6283 45.9163 15.2556C45.9172 15.6724 45.8357 16.0853 45.6766 16.4705C45.5176 16.8557 45.284 17.2058 44.9892 17.5005C44.6945 17.7952 44.3445 18.0288 43.9593 18.1879C43.574 18.347 43.1612 18.4284 42.7444 18.4275Z" fill="#393903"/>
<path d="M29 20.5413C30.673 20.5413 32.3084 21.0374 33.6994 21.9668C35.0904 22.8963 36.1746 24.2174 36.8148 25.763C37.4551 27.3086 37.6226 29.0094 37.2962 30.6502C36.9698 32.291 36.1642 33.7982 34.9812 34.9812C33.7982 36.1642 32.291 36.9698 30.6502 37.2962C29.0094 37.6226 27.3086 37.455 25.763 36.8148C24.2174 36.1746 22.8963 35.0904 21.9668 33.6994C21.0374 32.3084 20.5413 30.673 20.5413 29C20.5437 26.7573 21.4356 24.6072 23.0214 23.0214C24.6072 21.4356 26.7574 20.5437 29 20.5413ZM29 16.3125C26.4907 16.3125 24.0377 17.0566 21.9512 18.4507C19.8648 19.8448 18.2386 21.8264 17.2783 24.1447C16.318 26.463 16.0667 29.0141 16.5563 31.4752C17.0458 33.9363 18.2542 36.197 20.0286 37.9714C21.803 39.7458 24.0637 40.9542 26.5248 41.4437C28.9859 41.9333 31.537 41.682 33.8553 40.7217C36.1736 39.7614 38.1552 38.1352 39.5493 36.0488C40.9434 33.9623 41.6875 31.5094 41.6875 29C41.6875 25.6351 40.3508 22.408 37.9714 20.0286C35.5921 17.6492 32.3649 16.3125 29 16.3125Z" fill="#393903"/>
</svg>
